<svg width="512" height="512" viewBox="0 0 512 512" fill="none" xmlns="http://www.w3.org/2000/svg">
<g clip-path="url(#clip0_465_2)">
<path d="M253.954 -0.11687C255.141 -0.115166 256.328 -0.117689 257.515 -0.124463C268.538 -0.186644 279.508 0.380325 290.429 1.9436C290.702 1.98146 290.974 2.01932 291.254 2.05833C318.082 5.80609 343.988 13.7572 368.359 25.5445C368.781 25.7473 369.203 25.9502 369.637 26.1593C375.552 29.0136 381.244 32.1529 386.869 35.5401C387.457 35.8902 388.044 36.2401 388.632 36.59C396.658 41.401 404.458 46.6922 411.818 52.4732C412.442 52.9619 413.067 53.4471 413.693 53.932C416.448 56.0715 419.139 58.2731 421.783 60.547C422.433 61.105 423.085 61.6602 423.737 62.2155C429.081 66.7849 434.115 71.6466 439.092 76.6103C439.419 76.9358 439.419 76.9358 439.752 77.2679C442.075 79.5828 444.349 81.9061 446.473 84.4078C447.011 85.003 447.551 85.5971 448.093 86.1894C449.543 87.7973 450.923 89.4515 452.285 91.1352C453.143 92.1894 454.018 93.227 454.895 94.2646C460.702 101.229 465.958 108.653 470.907 116.246C471.211 116.709 471.211 116.709 471.521 117.182C475.025 122.535 478.218 128.026 481.273 133.646C481.521 134.101 481.521 134.101 481.775 134.566C496.895 162.346 506.686 193.168 510.612 226.221C510.64 226.468 510.669 226.715 510.698 226.97C510.874 228.508 511.031 230.047 511.175 231.588C511.234 232.22 511.295 232.852 511.357 233.484C512.018 240.31 512.128 247.103 512.117 253.954C512.115 255.141 512.118 256.328 512.124 257.515C512.187 268.538 511.62 279.508 510.056 290.429C510 290.838 510 290.838 509.942 291.254C506.194 318.082 498.243 343.988 486.456 368.359C486.253 368.781 486.05 369.203 485.841 369.637C482.986 375.552 479.847 381.244 476.46 386.869C476.11 387.457 475.76 388.044 475.41 388.632C470.599 396.658 465.308 404.458 459.527 411.818C459.038 412.442 458.553 413.067 458.068 413.693C455.928 416.448 453.727 419.139 451.453 421.783C450.895 422.433 450.34 423.085 449.785 423.737C445.215 429.081 440.353 434.115 435.39 439.092C435.173 439.31 434.956 439.528 434.732 439.752C432.417 442.075 430.094 444.349 427.592 446.473C426.997 447.011 426.403 447.551 425.811 448.093C424.203 449.543 422.549 450.923 420.865 452.285C419.811 453.143 418.773 454.018 417.735 454.895C410.771 460.702 403.347 465.958 395.754 470.907C395.291 471.211 395.291 471.211 394.818 471.521C389.465 475.025 383.974 478.218 378.354 481.273C378.051 481.438 377.747 481.604 377.434 481.775C349.654 496.895 318.832 506.686 285.779 510.612C285.532 510.64 285.285 510.669 285.03 510.698C283.492 510.874 281.953 511.031 280.412 511.175C279.78 511.234 279.148 511.295 278.516 511.357C271.69 512.018 264.897 512.128 258.046 512.117C256.859 512.115 255.672 512.118 254.485 512.124C243.462 512.187 232.492 511.62 221.57 510.056C221.162 510 221.162 510 220.746 509.942C193.918 506.194 168.012 498.243 143.641 486.456C143.008 486.151 143.008 486.151 142.363 485.841C136.448 482.986 130.756 479.847 125.131 476.46C124.543 476.11 123.956 475.76 123.368 475.41C115.342 470.599 107.542 465.308 100.182 459.527C99.5585 459.038 98.9327 458.553 98.3066 458.068C95.5524 455.928 92.8608 453.727 90.2166 451.453C89.567 450.895 88.9151 450.34 88.2632 449.785C82.9188 445.215 77.8847 440.353 72.9082 435.39C72.6901 435.173 72.4721 434.956 72.2475 434.732C69.9246 432.417 67.6506 430.094 65.5271 427.592C64.9887 426.997 64.449 426.403 63.9074 425.811C62.4567 424.203 61.0767 422.549 59.7151 420.865C58.8575 419.811 57.9823 418.773 57.1048 417.735C51.298 410.771 46.0415 403.347 41.0933 395.754C40.8905 395.445 40.6878 395.136 40.4788 394.818C36.9754 389.465 33.7815 383.974 30.7274 378.354C30.5616 378.051 30.3957 377.747 30.2249 377.434C15.1052 349.654 5.31435 318.832 1.38828 285.779C1.35969 285.532 1.3311 285.285 1.30165 285.03C1.12645 283.492 0.969441 281.953 0.825149 280.412C0.765871 279.78 0.704856 279.148 0.642575 278.516C-0.0179475 271.69 -0.12751 264.897 -0.11687 258.046C-0.115166 256.859 -0.117689 255.672 -0.124463 254.485C-0.186644 243.462 0.380325 232.492 1.9436 221.57C1.98146 221.298 2.01933 221.026 2.05834 220.746C5.8061 193.918 13.7572 168.012 25.5445 143.641C25.7473 143.219 25.9502 142.797 26.1593 142.363C29.0136 136.448 32.1529 130.756 35.5401 125.131C35.8902 124.543 36.2401 123.956 36.59 123.368C41.401 115.342 46.6922 107.542 52.4732 100.182C52.9619 99.5585 53.4471 98.9327 53.932 98.3066C56.0715 95.5524 58.2731 92.8608 60.547 90.2166C61.105 89.567 61.6602 88.9151 62.2155 88.2632C66.7849 82.9188 71.6466 77.8847 76.6103 72.9082C76.8273 72.6901 77.0443 72.4721 77.2679 72.2475C79.5828 69.9246 81.9061 67.6506 84.4078 65.5271C85.003 64.9887 85.5971 64.449 86.1894 63.9074C87.7973 62.4567 89.4515 61.0767 91.1352 59.7151C92.1894 58.8575 93.227 57.9823 94.2646 57.1048C101.229 51.298 108.653 46.0415 116.246 41.0933C116.555 40.8905 116.864 40.6878 117.182 40.4788C122.535 36.9754 128.026 33.7815 133.646 30.7274C134.101 30.4786 134.101 30.4786 134.566 30.2249C162.515 15.013 193.286 5.4478 226.429 1.38828C226.898 1.33233 227.366 1.27637 227.848 1.21872C229.395 1.04409 230.942 0.888595 232.492 0.740415C232.816 0.708131 233.141 0.675848 233.475 0.642586C240.304 -0.0207023 247.1 -0.127514 253.954 -0.11687Z" fill="black"/>
<path d="M328.006 126.241C328.592 126.346 328.592 126.346 329.191 126.452C346.568 129.582 362.662 137.695 375.393 149.935C375.196 151.442 374.443 152.119 373.377 153.157C373.039 153.49 372.701 153.822 372.353 154.165C371.993 154.514 371.634 154.862 371.274 155.21C369.206 157.23 367.167 159.237 365.289 161.436C363.847 163.07 362.256 164.566 360.701 166.093C359.445 167.335 358.223 168.583 357.07 169.923C355.656 171.568 354.125 173.081 352.578 174.6C350.836 176.312 349.152 178.012 347.627 179.922C346.31 179.551 345.485 178.96 344.503 178.048C335.77 170.18 324.09 166.9 312.596 166.826C312.338 166.823 312.08 166.82 311.814 166.817C306.93 166.774 302.314 167.476 297.672 169.07C297.396 169.164 297.121 169.257 296.837 169.354C290.837 171.466 285.483 174.736 280.619 178.811C280.237 179.118 280.237 179.118 279.847 179.432C272.625 185.411 268.055 194.411 265.44 203.245C265.241 203.871 265.241 203.871 265.037 204.509C264.62 206.151 264.435 207.761 264.283 209.446C264.253 209.786 264.222 210.126 264.191 210.476C263.194 222.405 265.811 232.492 271.734 242.858C315.898 243.041 315.898 243.041 360.954 243.228C360.954 256.911 360.954 270.594 360.954 284.691C337.987 284.691 315.019 284.691 291.355 284.691C291.722 287.623 292.088 290.555 292.466 293.576C292.536 295.946 292.598 298.28 292.57 300.646C292.558 301.644 292.555 302.643 292.552 303.641C292.532 308.282 292.334 312.8 291.424 317.362C291.358 317.699 291.291 318.036 291.222 318.384C291.024 319.371 290.82 320.356 290.615 321.342C290.564 321.596 290.513 321.85 290.46 322.111C288.885 329.834 285.642 337.288 282.1 344.295C281.855 344.784 281.611 345.272 281.359 345.776C320.576 345.776 359.792 345.776 400.197 345.776C400.197 359.337 400.197 372.897 400.197 386.869C334.103 386.869 268.01 386.869 199.913 386.869C199.913 373.308 199.913 359.748 199.913 345.776C206.266 345.531 212.619 345.287 219.164 345.035C223.918 344.237 223.918 344.237 228.35 342.745C228.611 342.633 228.872 342.521 229.141 342.406C238.377 338.289 244.006 328.76 247.55 319.669C247.984 318.506 248.386 317.336 248.781 316.159C248.898 315.826 249.015 315.494 249.135 315.151C250.66 310.533 250.781 305.702 250.771 300.888C250.771 300.462 250.771 300.462 250.772 300.027C250.766 295.713 250.425 291.804 249.151 287.653C248.907 286.676 248.662 285.698 248.411 284.691C232.162 284.691 215.914 284.691 199.173 284.691C199.173 271.008 199.173 257.325 199.173 243.228C208.091 243.228 217.01 243.228 226.198 243.228C225.709 241.517 225.221 239.807 224.717 238.045C224.436 236.84 224.169 235.647 223.931 234.435C223.873 234.161 223.815 233.887 223.756 233.605C222.605 227.842 222.358 222.073 222.359 216.212C222.357 215.054 222.344 213.898 222.33 212.74C222.291 205.74 223.257 198.909 225.134 192.162C225.243 191.768 225.351 191.373 225.463 190.967C229.403 177.202 236.608 164.643 246.408 154.237C247.304 153.286 247.304 153.286 248.075 152.289C248.71 151.504 249.329 150.883 250.1 150.236C250.955 149.509 251.792 148.777 252.606 148.004C257.01 143.831 262.059 140.397 267.291 137.348C267.725 137.085 268.158 136.822 268.592 136.558C274.732 132.895 281.493 130.27 288.358 128.315C289.064 128.112 289.767 127.898 290.469 127.682C302.275 124.334 315.991 123.949 328.006 126.241Z" fill="#499BE5"/>
<path d="M111.433 156.599C125.116 156.599 138.799 156.599 152.897 156.599C152.897 171.503 152.897 186.408 152.897 201.764C157.821 201.758 157.821 201.758 162.844 201.751C165.181 201.749 167.518 201.747 169.855 201.746C172.887 201.744 175.918 201.741 178.949 201.736C181.349 201.733 183.748 201.73 186.147 201.729C187.418 201.729 188.689 201.728 189.96 201.725C191.377 201.722 192.794 201.722 194.21 201.722C194.635 201.721 195.059 201.72 195.496 201.718C196.072 201.719 196.072 201.719 196.659 201.72C196.995 201.719 197.33 201.719 197.676 201.719C198.432 201.764 198.432 201.764 198.803 202.134C198.838 202.668 198.848 203.204 198.847 203.739C198.848 204.257 198.848 204.257 198.849 204.786C198.847 205.17 198.846 205.553 198.845 205.949C198.845 206.356 198.845 206.763 198.845 207.183C198.844 208.509 198.842 209.834 198.839 211.16C198.838 211.975 198.838 212.791 198.838 213.607C198.836 216.639 198.83 219.672 198.826 222.704C198.818 229.477 198.81 236.25 198.803 243.228C183.654 243.228 168.505 243.228 152.897 243.228C152.826 255.003 152.826 255.003 154.586 266.597C154.683 266.964 154.78 267.33 154.88 267.708C155.847 271.197 157.174 274.437 158.82 277.657C158.941 277.895 159.062 278.133 159.187 278.378C160.819 281.521 162.779 284.253 165.113 286.912C165.353 287.201 165.593 287.49 165.839 287.787C174.555 298.086 186.683 302.105 199.543 303.942C199.543 317.625 199.543 331.308 199.543 345.406C196.515 345.406 193.716 345.389 190.75 344.989C190.39 344.941 190.03 344.892 189.66 344.843C171.399 342.215 155.229 334.147 141.42 322.082C141.08 321.788 140.74 321.494 140.39 321.192C138.734 319.734 137.203 318.247 135.782 316.56C135.046 315.694 134.277 314.865 133.507 314.03C119.145 298.065 111.329 276.077 111.389 254.719C111.388 254.297 111.388 253.874 111.388 253.439C111.387 252.036 111.389 250.632 111.391 249.229C111.391 248.218 111.391 247.207 111.391 246.196C111.391 244.026 111.392 241.856 111.394 239.686C111.397 236.548 111.398 233.41 111.398 230.273C111.399 225.181 111.402 220.09 111.405 214.998C111.409 210.055 111.411 205.111 111.413 200.168C111.413 199.863 111.413 199.558 111.413 199.243C111.413 197.712 111.414 196.181 111.414 194.65C111.418 181.966 111.425 169.283 111.433 156.599Z" fill="#499BE5"/>
</g>
<defs>
<clipPath id="clip0_465_2">
<rect width="512" height="512" fill="white"/>
</clipPath>
</defs>
</svg>
