<svg width="20" height="20" viewBox="0 0 20 20" fill="none" xmlns="http://www.w3.org/2000/svg">
<path d="M7.91797 11.6667C9.29868 11.6667 10.418 12.786 10.418 14.1667C10.418 15.5474 9.29868 16.6667 7.91797 16.6667C6.53726 16.6667 5.41797 15.5474 5.41797 14.1667C5.41797 12.786 6.53726 11.6667 7.91797 11.6667Z" stroke="#3B4F74" stroke-width="1.5"/>
<path d="M12.082 3.33323C10.7013 3.33323 9.58203 4.45252 9.58203 5.83323C9.58203 7.21394 10.7013 8.33323 12.082 8.33323C13.4627 8.33323 14.582 7.21394 14.582 5.83323C14.582 4.45252 13.4627 3.33323 12.082 3.33323Z" stroke="#3B4F74" stroke-width="1.5"/>
<path opacity="0.5" d="M10.832 14.1667L18.332 14.1667" stroke="#3B4F74" stroke-width="1.5" stroke-linecap="round"/>
<path opacity="0.5" d="M9.16797 5.83342L1.66797 5.79883" stroke="#3B4F74" stroke-width="1.5" stroke-linecap="round"/>
<path opacity="0.5" d="M1.66797 14.1667L5.0013 14.1667" stroke="#3B4F74" stroke-width="1.5" stroke-linecap="round"/>
<path opacity="0.5" d="M18.3333 5.83325L15 5.83325" stroke="#3B4F74" stroke-width="1.5" stroke-linecap="round"/>
</svg>
