<svg width="30" height="30" viewBox="0 0 30 30" fill="none" xmlns="http://www.w3.org/2000/svg">
<path d="M14.9995 5.51953C20.2295 5.51953 24.4795 9.75953 24.4795 14.9995C24.4795 20.2395 20.2395 24.4795 14.9995 24.4795C9.75953 24.4795 5.51953 20.2395 5.51953 14.9995C5.51953 9.75953 9.76953 5.51953 14.9995 5.51953Z" stroke="#4E4E4E" stroke-linecap="round" stroke-linejoin="round"/>
<path d="M11.8694 12.5999C11.8694 12.1499 11.9994 11.6999 12.2494 11.2299C12.4994 10.7599 12.8794 10.3899 13.3694 10.0799C13.8594 9.76988 14.4294 9.62988 15.0794 9.62988C15.6894 9.62988 16.2194 9.75988 16.6794 10.0099C17.1394 10.2599 17.4994 10.6099 17.7494 11.0399C17.9994 11.4699 18.1294 11.9499 18.1294 12.4599C18.1294 12.8599 18.0594 13.2099 17.9094 13.5199C17.7594 13.8299 17.5894 14.0799 17.3994 14.2999C17.2094 14.5199 16.8494 14.8899 16.3294 15.4099C16.1894 15.5599 16.0694 15.6899 15.9894 15.7999C15.9094 15.9099 15.8394 16.0099 15.7994 16.1099C15.7594 16.2099 15.7294 16.2899 15.6994 16.3899C15.6694 16.4899 15.6394 16.6399 15.5994 16.8799C15.5194 17.3699 15.2694 17.6199 14.8494 17.6199C14.6294 17.6199 14.4494 17.5399 14.2994 17.3799C14.1494 17.2199 14.0794 16.9799 14.0794 16.6599C14.0794 16.2599 14.1294 15.9199 14.2394 15.6299C14.3494 15.3399 14.4894 15.0799 14.6694 14.8599C14.8494 14.6399 15.0894 14.3799 15.3994 14.0799C15.6694 13.8199 15.8594 13.6199 15.9794 13.4799C16.0994 13.3399 16.1994 13.1999 16.2794 13.0299C16.3594 12.8599 16.3994 12.6799 16.3994 12.4899C16.3994 12.1099 16.2794 11.7899 16.0294 11.5299C15.7794 11.2699 15.4594 11.1399 15.0694 11.1399C14.6094 11.1399 14.2694 11.2699 14.0494 11.5299C13.8294 11.7899 13.6494 12.1799 13.4994 12.6899C13.3594 13.2199 13.0894 13.4899 12.6894 13.4899C12.4594 13.4899 12.2594 13.3999 12.0994 13.2099C11.9394 13.0199 11.8594 12.8199 11.8594 12.5999H11.8694ZM14.9194 20.2599C14.6694 20.2599 14.4394 20.1799 14.2494 20.0099C14.0594 19.8399 13.9594 19.6099 13.9594 19.3099C13.9594 19.0399 14.0494 18.8199 14.2394 18.6299C14.4294 18.4399 14.6494 18.3599 14.9194 18.3599C15.1894 18.3599 15.3994 18.4499 15.5794 18.6299C15.7594 18.8099 15.8494 19.0399 15.8494 19.3099C15.8494 19.6099 15.7594 19.8399 15.5694 20.0099C15.3794 20.1799 15.1594 20.2699 14.9194 20.2699V20.2599Z" fill="#4E4E4E"/>
</svg>
