<svg width="30" height="30" viewBox="0 0 30 30" fill="none" xmlns="http://www.w3.org/2000/svg">
<path d="M14.9995 5.51953C20.2295 5.51953 24.4795 9.75953 24.4795 14.9995C24.4795 20.2395 20.2395 24.4795 14.9995 24.4795C9.75953 24.4795 5.51953 20.2395 5.51953 14.9995C5.51953 9.75953 9.76953 5.51953 14.9995 5.51953Z" fill="#3B4F74" stroke="#3B4F74" stroke-width="1.5" stroke-linecap="round" stroke-linejoin="round"/>
<path d="M11.8694 12.5989C11.8694 12.1489 11.9994 11.6989 12.2494 11.2289C12.4994 10.7589 12.8794 10.3889 13.3694 10.0789C13.8594 9.76891 14.4294 9.62891 15.0794 9.62891C15.6894 9.62891 16.2194 9.75891 16.6794 10.0089C17.1394 10.2589 17.4994 10.6089 17.7494 11.0389C17.9994 11.4689 18.1294 11.9489 18.1294 12.4589C18.1294 12.8589 18.0594 13.2089 17.9094 13.5189C17.7594 13.8289 17.5894 14.0789 17.3994 14.2989C17.2094 14.5189 16.8494 14.8889 16.3294 15.4089C16.1894 15.5589 16.0694 15.6889 15.9894 15.7989C15.9094 15.9089 15.8394 16.0089 15.7994 16.1089C15.7594 16.2089 15.7294 16.2889 15.6994 16.3889C15.6694 16.4889 15.6394 16.6389 15.5994 16.8789C15.5194 17.3689 15.2694 17.6189 14.8494 17.6189C14.6294 17.6189 14.4494 17.5389 14.2994 17.3789C14.1494 17.2189 14.0794 16.9789 14.0794 16.6589C14.0794 16.2589 14.1294 15.9189 14.2394 15.6289C14.3494 15.3389 14.4894 15.0789 14.6694 14.8589C14.8494 14.6389 15.0894 14.3789 15.3994 14.0789C15.6694 13.8189 15.8594 13.6189 15.9794 13.4789C16.0994 13.3389 16.1994 13.1989 16.2794 13.0289C16.3594 12.8589 16.3994 12.6789 16.3994 12.4889C16.3994 12.1089 16.2794 11.7889 16.0294 11.5289C15.7794 11.2689 15.4594 11.1389 15.0694 11.1389C14.6094 11.1389 14.2694 11.2689 14.0494 11.5289C13.8294 11.7889 13.6494 12.1789 13.4994 12.6889C13.3594 13.2189 13.0894 13.4889 12.6894 13.4889C12.4594 13.4889 12.2594 13.3989 12.0994 13.2089C11.9394 13.0189 11.8594 12.8189 11.8594 12.5989H11.8694ZM14.9194 20.2589C14.6694 20.2589 14.4394 20.1789 14.2494 20.0089C14.0594 19.8389 13.9594 19.6089 13.9594 19.3089C13.9594 19.0389 14.0494 18.8189 14.2394 18.6289C14.4294 18.4389 14.6494 18.3589 14.9194 18.3589C15.1894 18.3589 15.3994 18.4489 15.5794 18.6289C15.7594 18.8089 15.8494 19.0389 15.8494 19.3089C15.8494 19.6089 15.7594 19.8389 15.5694 20.0089C15.3794 20.1789 15.1594 20.2689 14.9194 20.2689V20.2589Z" fill="white"/>
</svg>
