<svg width="30" height="30" viewBox="0 0 30 30" fill="none" xmlns="http://www.w3.org/2000/svg">
<path d="M24.4795 24.4805H5.51953" stroke="#4E4E4E" stroke-linecap="round"/>
<path d="M22.5898 24.48V14.05" stroke="#4E4E4E" stroke-linecap="round"/>
<path d="M7.41016 24.48V14.05" stroke="#4E4E4E" stroke-linecap="round"/>
<path d="M19.2918 5.51953H10.7018C9.5618 5.51953 8.9918 5.51953 8.5318 5.79953C8.0718 6.07953 7.8218 6.58953 7.3118 7.60953L5.9818 10.9795C5.6718 11.7595 5.4018 12.6695 5.9218 13.3295C6.2718 13.7695 6.8118 14.0495 7.4118 14.0495C8.4618 14.0495 9.31181 13.1995 9.31181 12.1495C9.31181 13.1995 10.1618 14.0495 11.2118 14.0495C12.2618 14.0495 13.1118 13.1995 13.1118 12.1495C13.1118 13.1995 13.9618 14.0495 15.0118 14.0495C16.0618 14.0495 16.9118 13.1995 16.9118 12.1495C16.9118 13.1995 17.7618 14.0495 18.8118 14.0495C19.8618 14.0495 20.7118 13.1995 20.7118 12.1495C20.7118 13.1995 21.5618 14.0495 22.6118 14.0495C23.2118 14.0495 23.7518 13.7695 24.1018 13.3295C24.6218 12.6695 24.3518 11.7595 24.0418 10.9795L22.7118 7.60953C22.2018 6.58953 21.9418 6.07953 21.4918 5.79953C21.0318 5.51953 20.4618 5.51953 19.3218 5.51953H19.2918Z" stroke="#4E4E4E" stroke-linejoin="round"/>
<path d="M12.6289 24.01V21.16C12.6289 20.27 12.6289 19.83 12.8189 19.5C12.9389 19.28 13.1189 19.1 13.3389 18.98C13.6689 18.79 14.1089 18.79 14.9989 18.79C15.8889 18.79 16.3289 18.79 16.6589 18.98C16.8789 19.1 17.0589 19.28 17.1789 19.5C17.3689 19.83 17.3689 20.27 17.3689 21.16V24.01" stroke="#4E4E4E" stroke-linecap="round"/>
</svg>
