<svg width="30" height="30" viewBox="0 0 30 30" fill="none" xmlns="http://www.w3.org/2000/svg">
<path d="M19.3811 9.88C19.3811 12.3 17.4211 14.26 15.0011 14.26C12.5811 14.26 10.6211 12.3 10.6211 9.88C10.6211 7.46 12.5811 5.5 15.0011 5.5C17.4211 5.5 19.3811 7.46 19.3811 9.88Z" stroke="#4E4E4E"/>
<path d="M14.9987 24.5002C19.3387 24.5002 21.8487 23.3802 23.0087 22.6602C23.5487 22.3202 23.8187 21.7002 23.7687 21.0602C23.6887 20.1802 23.3887 19.3002 23.0687 18.6102C22.6587 17.7002 21.7087 17.2002 20.7087 17.2002H9.29869C8.29869 17.2002 7.34869 17.7002 6.93869 18.6102C6.62869 19.3102 6.31869 20.1802 6.23869 21.0602C6.17869 21.7002 6.44869 22.3202 6.99869 22.6602C8.15869 23.3802 10.6587 24.5002 15.0087 24.5002H14.9987Z" stroke="#4E4E4E"/>
</svg>
